# xmcd
#
# Track frame offsets:
#	150
#	14352
#	32855
#	48935
#	62855
#	79217
#	101507
#	119407
#	133712
#	156662
#	175250
#
# Disc length: 2703 seconds
#
# Revision: 1
# Processed by: cddbd v1.5.2PL0 Copyright (c) Steve Scherf et al.
# Submitted via: audiograbber 1.83.01
#
DISCID=970a8d0b
DTITLE=Rascals - The island of Real
DYEAR=1972
DGENRE=Rock
TTITLE0=Lucky day
TTITLE1=Saga of New York
TTITLE2=Be on the real side
TTITLE3=Jungle walk
TTITLE4=Brother tree
TTITLE5=Island of real
TTITLE6=Hummin' song
TTITLE7=Echoes
TTITLE8=Buttercup
TTITLE9=Time will tell
TTITLE10=Lament
EXTD=
EXTT0=
EXTT1=
EXTT2=
EXTT3=
EXTT4=
EXTT5=
EXTT6=
EXTT7=
EXTT8=
EXTT9=
EXTT10=
PLAYORDER=
